<svg aria-hidden="true" style="position: absolute; width: 0; height: 0; overflow: hidden;" version="1.1" xmlns="http://www.w3.org/2000/svg" xmlns:xlink="http://www.w3.org/1999/xlink">
<defs>
<symbol id="icon-phone" viewBox="0 0 31 32">
<path fill="#292d32" style="fill: var(--color1, #292d32)" d="M22.554 14.075c-0.544 0-0.986-0.441-0.986-0.986v0c0-0.474-0.474-1.459-1.267-2.317-0.781-0.832-1.638-1.318-2.355-1.318-0.544 0-0.986-0.441-0.986-0.986v0c0-0.538 0.448-0.986 0.986-0.986 1.28 0 2.624 0.691 3.802 1.933 1.101 1.165 1.805 2.611 1.805 3.661 0 0.55-0.448 0.998-0.998 0.998zM27.174 14.075c-0.544 0-0.986-0.441-0.986-0.986v0c0-4.544-3.699-8.23-8.23-8.23-0.544 0-0.986-0.441-0.986-0.986v0c0-0.538 0.435-0.998 0.973-0.998 5.632 0 10.214 4.582 10.214 10.214 0 0.538-0.448 0.986-0.986 0.986z"></path>
<path fill="#292d32" style="fill: var(--color1, #292d32)" opacity="0.4" d="M15.091 18.504l-4.186 4.186c-0.461-0.41-0.909-0.832-1.344-1.267-1.263-1.271-2.434-2.637-3.501-4.085l-0.071-0.1c-1.050-1.459-1.894-2.918-2.509-4.365-0.614-1.459-0.922-2.854-0.922-4.186 0-0.87 0.154-1.702 0.461-2.47 0.307-0.781 0.794-1.498 1.472-2.138 0.819-0.806 1.715-1.203 2.662-1.203 0.358 0 0.717 0.077 1.037 0.23 0.333 0.154 0.627 0.384 0.858 0.717l2.97 4.186c0.23 0.32 0.397 0.614 0.512 0.896 0.115 0.269 0.179 0.538 0.179 0.781 0 0.307-0.090 0.614-0.269 0.909-0.166 0.294-0.41 0.602-0.717 0.909l-0.973 1.011c-0.141 0.141-0.205 0.307-0.205 0.512 0 0.102 0.013 0.192 0.038 0.294 0.038 0.102 0.077 0.179 0.102 0.256 0.23 0.422 0.627 0.973 1.19 1.638 0.576 0.666 1.19 1.344 1.856 2.022 0.461 0.448 0.909 0.883 1.357 1.267z"></path>
<path fill="#292d32" style="fill: var(--color1, #292d32)" d="M28.122 23.777c0 0.358-0.064 0.73-0.192 1.088-0.038 0.102-0.077 0.205-0.128 0.307-0.218 0.461-0.499 0.896-0.87 1.306-0.627 0.691-1.318 1.19-2.099 1.51-0.013 0-0.026 0.013-0.038 0.013-0.755 0.307-1.574 0.474-2.458 0.474-1.306 0-2.701-0.307-4.173-0.934s-2.944-1.472-4.403-2.534c-0.499-0.371-0.998-0.742-1.472-1.139l4.186-4.186c0.358 0.269 0.678 0.474 0.947 0.614 0.064 0.026 0.141 0.064 0.23 0.102 0.102 0.038 0.205 0.051 0.32 0.051 0.218 0 0.384-0.077 0.525-0.218l0.973-0.96c0.32-0.32 0.627-0.563 0.922-0.717 0.294-0.179 0.589-0.269 0.909-0.269 0.243 0 0.499 0.051 0.781 0.166s0.576 0.282 0.896 0.499l4.237 3.008c0.333 0.23 0.563 0.499 0.704 0.819 0.128 0.32 0.205 0.64 0.205 0.998z"></path>
</symbol>
<symbol id="icon-email" viewBox="0 0 31 32">
<path fill="#292d32" style="fill: var(--color1, #292d32)" opacity="0.4" d="M21.76 27.075h-12.8c-3.84 0-6.4-1.92-6.4-6.4v-8.96c0-4.48 2.56-6.4 6.4-6.4h12.8c3.84 0 6.4 1.92 6.4 6.4v8.96c0 4.48-2.56 6.4-6.4 6.4z"></path>
<path fill="#292d32" style="fill: var(--color1, #292d32)" d="M15.36 17.307c-1.075 0-2.163-0.333-2.995-1.011l-4.006-3.2c-0.202-0.177-0.33-0.435-0.33-0.723 0-0.529 0.429-0.957 0.957-0.957 0.211 0 0.407 0.069 0.565 0.185l-0.003-0.002 4.006 3.2c0.973 0.781 2.624 0.781 3.597 0l4.006-3.2c0.41-0.333 1.024-0.269 1.344 0.154 0.333 0.41 0.269 1.024-0.154 1.344l-4.006 3.2c-0.819 0.678-1.907 1.011-2.982 1.011z"></path>
</symbol>
<symbol id="icon-location" viewBox="0 0 31 32">
<path fill="#292d32" style="fill: var(--color1, #292d32)" opacity="0.4" d="M26.406 10.392c-1.344-5.916-6.506-8.58-11.040-8.58h-0.013c-4.521 0-9.695 2.65-11.040 8.567-1.498 6.607 2.548 12.204 6.212 15.726 1.357 1.306 3.099 2.918 4.841 2.918 1.741 0 3.483-1.613 4.828-2.918 3.663-3.523 7.711-9.106 6.212-15.713z"></path>
<path fill="#292d32" style="fill: var(--color1, #292d32)" d="M15.36 16.814c2.227 0 4.032-1.805 4.032-4.032s-1.805-4.032-4.032-4.032v0c-2.227 0-4.032 1.805-4.032 4.032s1.805 4.032 4.032 4.032v0z"></path>
</symbol>
<symbol id="icon-linkedin" viewBox="0 0 31 32">
<path fill="#292d32" style="fill: var(--color1, #292d32)" opacity="0.4" d="M15.36 0.936c8.483 0 15.36 6.877 15.36 15.36s-6.877 15.36-15.36 15.36c-8.483 0-15.36-6.877-15.36-15.36s6.877-15.36 15.36-15.36z"></path>
<path fill="#292d32" style="fill: var(--color1, #292d32)" d="M10.621 23.091c-0.037 0.953-0.819 1.712-1.778 1.712s-1.741-0.759-1.778-1.708l-0-0.003v-7.899c-0.001-0.020-0.001-0.044-0.001-0.067 0-0.983 0.797-1.779 1.779-1.779s1.779 0.797 1.779 1.779c0 0.024-0 0.047-0.001 0.071l0-0.003v7.898zM8.845 11.846c-0.001 0-0.002 0-0.003 0-1.137 0-2.060-0.922-2.060-2.060 0-0.143 0.015-0.283 0.042-0.418l-0.002 0.013c0.196-0.953 1.027-1.66 2.025-1.66 0.284 0 0.555 0.057 0.801 0.161l-0.014-0.005c0.753 0.318 1.272 1.050 1.272 1.904 0 0.001 0 0.002 0 0.003v-0c-0.001 1.138-0.923 2.060-2.061 2.063h-0zM23.936 23.091c0 0.981-0.795 1.777-1.777 1.777s-1.777-0.795-1.777-1.777v0-3.794c0-1.329-0.024-3.036-1.848-3.036-1.848 0-2.134 1.446-2.134 2.94v3.891c0 0.98-0.795 1.775-1.775 1.775s-1.775-0.795-1.775-1.775v-7.974c0-0.941 0.764-1.704 1.705-1.704h0.14c0.865 0 1.565 0.701 1.565 1.565h0.049c0.474-0.9 1.632-1.851 3.364-1.851 3.602 0 4.264 2.373 4.264 5.458v4.506z"></path>
</symbol>
<symbol id="icon-github" viewBox="0 0 31 32">
<path fill="#292d32" style="fill: var(--color1, #292d32)" d="M19.424 30.724c0.166 0.164-8.25 0.212-7.89 0.143 0 0 0.020-0.512 0.020-0.758l-0.010-1.107c-0.006-0.698-0.010-1.306-0.010-1.825l-0.461 0.082c-0.293 0.055-0.663 0.079-1.11 0.072-0.498-0.010-0.977-0.061-1.443-0.152l0.053 0.009c-0.514-0.1-0.966-0.316-1.345-0.619l0.006 0.005c-0.407-0.318-0.713-0.748-0.875-1.242l-0.005-0.018-0.2-0.472c-0.182-0.398-0.392-0.742-0.638-1.056l0.008 0.011c-0.287-0.384-0.576-0.643-0.87-0.781l-0.141-0.102c-0.098-0.072-0.183-0.153-0.258-0.242l-0.002-0.002c-0.071-0.083-0.131-0.178-0.176-0.281l-0.003-0.007c-0.040-0.095-0.006-0.174 0.1-0.236s0.3-0.092 0.58-0.092l0.401 0.061c0.266 0.055 0.596 0.219 0.989 0.492 0.393 0.274 0.717 0.63 0.97 1.066 0.307 0.561 0.676 0.988 1.11 1.281 0.434 0.294 0.87 0.442 1.309 0.442 0.44 0 0.82-0.035 1.14-0.102 0.32-0.069 0.62-0.172 0.9-0.307 0.12-0.916 0.448-1.62 0.98-2.112-0.771-0.079-1.468-0.209-2.144-0.39l0.094 0.021c-0.716-0.205-1.34-0.478-1.918-0.82l0.037 0.020c-0.634-0.359-1.168-0.818-1.6-1.362l-0.009-0.011c-0.428-0.547-0.777-1.265-1.050-2.153-0.274-0.888-0.411-1.914-0.411-3.075 0-1.654 0.526-3.062 1.58-4.224-0.493-1.243-0.447-2.637 0.141-4.182 0.387-0.123 0.96-0.031 1.72 0.276 0.759 0.307 1.316 0.571 1.669 0.79 0.353 0.218 0.637 0.403 0.85 0.553 1.14-0.338 2.451-0.533 3.806-0.533 0.012 0 0.024 0 0.035 0h-0.002c1.321 0 2.601 0.178 3.84 0.532l0.76-0.492c0.525-0.33 1.131-0.633 1.766-0.878l0.073-0.025c0.708-0.274 1.247-0.348 1.62-0.225 0.6 1.544 0.653 2.939 0.16 4.182 1.053 1.162 1.58 2.57 1.58 4.224 0 1.161-0.136 2.189-0.41 3.085-0.273 0.896-0.627 1.613-1.060 2.153-0.433 0.539-0.973 0.995-1.619 1.363-0.541 0.322-1.165 0.595-1.825 0.786l-0.057 0.014c-0.605 0.164-1.289 0.287-2.048 0.369 0.691 0.614 1.039 1.585 1.039 2.911v4.326c0 0.246 0.083 0.451 0.25 0.614z"></path>
<path fill="#292d32" style="fill: var(--color1, #292d32)" opacity="0.4" d="M30.72 15.921c0 3.43-0.977 6.515-2.931 9.256-1.952 2.739-4.476 4.636-7.569 5.69-0.36 0.068-0.623 0.020-0.79-0.145-0.155-0.151-0.251-0.361-0.251-0.594 0-0.007 0-0.014 0-0.021l-0 0.001v-4.326c0-1.325-0.346-2.295-1.039-2.911 0.76-0.082 1.443-0.205 2.049-0.369 0.716-0.205 1.341-0.478 1.919-0.82l-0.037 0.020c0.635-0.36 1.172-0.815 1.611-1.353l0.008-0.010c0.433-0.54 0.786-1.257 1.060-2.152 0.273-0.896 0.41-1.924 0.41-3.086 0-1.654-0.526-3.062-1.58-4.224 0.493-1.243 0.44-2.637-0.16-4.182-0.374-0.123-0.914-0.047-1.62 0.227-0.708 0.269-1.314 0.572-1.884 0.927l0.045-0.026-0.76 0.493c-1.142-0.339-2.454-0.534-3.811-0.534-0.010 0-0.021 0-0.031 0h0.002c-1.32 0-2.6 0.178-3.84 0.534-0.215-0.153-0.492-0.335-0.774-0.511l-0.076-0.044c-0.353-0.218-0.91-0.481-1.67-0.788-0.759-0.307-1.332-0.401-1.719-0.278-0.588 1.545-0.634 2.939-0.141 4.183-1.053 1.161-1.58 2.569-1.58 4.223 0 1.162 0.137 2.186 0.41 3.075 0.274 0.888 0.623 1.606 1.050 2.153 0.428 0.547 0.964 1.005 1.61 1.373 0.646 0.37 1.274 0.636 1.88 0.8s1.29 0.287 2.049 0.369c-0.532 0.493-0.859 1.196-0.979 2.112-0.259 0.129-0.559 0.235-0.874 0.303l-0.026 0.005c-0.32 0.068-0.7 0.102-1.139 0.102-0.442 0-0.878-0.147-1.311-0.44-0.434-0.294-0.804-0.721-1.11-1.281-0.247-0.429-0.572-0.785-0.96-1.059l-0.010-0.007c-0.394-0.273-0.723-0.438-0.991-0.492l-0.399-0.061c-0.28 0-0.474 0.031-0.58 0.092-0.108 0.061-0.141 0.141-0.101 0.236 0.041 0.096 0.101 0.192 0.18 0.287 0.081 0.096 0.166 0.178 0.26 0.246l0.141 0.102c0.293 0.137 0.582 0.397 0.87 0.78 0.285 0.383 0.495 0.731 0.63 1.046l0.2 0.471c0.173 0.52 0.466 0.94 0.879 1.261s0.86 0.526 1.34 0.614c0.48 0.090 0.943 0.137 1.39 0.145 0.056 0.002 0.121 0.003 0.186 0.003 0.326 0 0.646-0.027 0.957-0.079l-0.034 0.005 0.461-0.082c0 0.518 0.003 1.126 0.009 1.824l0.010 1.107c0 0.006 0 0.012 0 0.019 0 0.235-0.1 0.447-0.26 0.595l-0.001 0c-0.173 0.165-0.44 0.212-0.8 0.145-3.094-1.053-5.617-2.949-7.57-5.69-1.953-2.738-2.93-5.825-2.93-9.256 0-2.857 0.686-5.491 2.061-7.904 1.356-2.384 3.248-4.321 5.52-5.69l0.070-0.039c2.353-1.408 4.923-2.112 7.709-2.112s5.357 0.704 7.709 2.112c2.342 1.408 4.235 3.345 5.551 5.653l0.040 0.076c1.373 2.413 2.060 5.047 2.060 7.904z"></path>
</symbol>
<symbol id="icon-instagram" viewBox="0 0 31 32">
<path fill="#292d32" style="fill: var(--color1, #292d32)" opacity="0.4" d="M15.36 0.695c8.483 0 15.36 6.877 15.36 15.36s-6.877 15.36-15.36 15.36c-8.483 0-15.36-6.877-15.36-15.36s6.877-15.36 15.36-15.36z"></path>
<path fill="#292d32" style="fill: var(--color1, #292d32)" d="M16.371 25.425h-0.275c-0.255 0-0.461 0.206-0.461 0.461s0.206 0.461 0.461 0.461h0.276c0.255 0 0.461-0.206 0.461-0.461s-0.206-0.461-0.461-0.461v0zM14.624 25.425h-4.326c-0.255 0-0.461 0.206-0.461 0.461s0.206 0.461 0.461 0.461h4.326c0.255 0 0.461-0.206 0.461-0.461s-0.206-0.461-0.461-0.461v0zM15.36 12.703c-1.866 0.002-3.379 1.514-3.382 3.38v0c0.002 1.867 1.515 3.38 3.382 3.382h0c1.867-0.002 3.38-1.515 3.382-3.382v-0c-0.003-1.866-1.515-3.378-3.382-3.38h-0zM15.36 18.545c-1.359-0.001-2.46-1.103-2.461-2.461v-0c0-1.357 1.105-2.461 2.461-2.461s2.461 1.105 2.461 2.461-1.105 2.461-2.461 2.461z"></path>
<path fill="#292d32" style="fill: var(--color1, #292d32)" d="M15.36 10.138c-3.282 0.004-5.942 2.663-5.947 5.945v0c0.004 3.283 2.664 5.943 5.947 5.947h0c3.283-0.004 5.943-2.664 5.947-5.947v-0c-0.004-3.282-2.664-5.942-5.947-5.946h-0zM15.36 21.11c-2.775-0.003-5.024-2.252-5.027-5.026v-0c0.003-2.775 2.252-5.024 5.026-5.027h0c2.775 0.003 5.024 2.252 5.027 5.026v0c-0.003 2.775-2.252 5.024-5.026 5.027h-0z"></path>
<path fill="#292d32" style="fill: var(--color1, #292d32)" d="M20.975 9.039c-0.787 0-1.428 0.64-1.428 1.428 0.041 0.758 0.665 1.357 1.429 1.357s1.389-0.599 1.429-1.353l0-0.004c0-0.788-0.641-1.428-1.43-1.428zM20.975 10.976c-0.007 0-0.016 0.001-0.025 0.001-0.281 0-0.509-0.228-0.509-0.509s0.228-0.509 0.509-0.509c0.009 0 0.018 0 0.027 0.001l-0.001-0c0.27 0.014 0.484 0.236 0.484 0.509s-0.214 0.495-0.483 0.509l-0.001 0z"></path>
<path fill="#292d32" style="fill: var(--color1, #292d32)" d="M20.020 7.164h-9.32c-2.335 0.003-4.227 1.895-4.229 4.23v9.379c0.002 2.335 1.894 4.227 4.229 4.23h9.321c2.335-0.003 4.227-1.895 4.229-4.23v-9.379c-0.002-2.335-1.894-4.228-4.229-4.23h-0zM23.331 20.773c-0.002 1.827-1.483 3.307-3.31 3.309h-9.32c-1.827-0.001-3.308-1.482-3.31-3.309v-9.379c0.001-1.828 1.483-3.309 3.31-3.31h9.321c1.828 0.001 3.309 1.483 3.31 3.31v9.379z"></path>
<path fill="#292d32" style="fill: var(--color1, #292d32)" d="M20.020 4.535h-9.32c-3.787 0.004-6.856 3.072-6.861 6.859v9.379c0.004 3.787 3.073 6.855 6.859 6.86h9.321c3.787-0.004 6.855-3.073 6.86-6.859v-9.379c-0.004-3.787-3.072-6.856-6.859-6.861h-0zM25.96 20.773c-0.004 3.279-2.661 5.936-5.939 5.939h-9.32c-3.279-0.004-5.936-2.661-5.939-5.939v-9.379c0.004-3.279 2.661-5.936 5.939-5.939h9.321c3.279 0.004 5.936 2.661 5.939 5.939v9.379z"></path>
</symbol>
<symbol id="icon-search" viewBox="0 0 32 32">
<path d="M31.008 27.231l-7.58-6.447c-0.784-0.705-1.622-1.029-2.299-0.998 1.789-2.096 2.87-4.815 2.87-7.787 0-6.627-5.373-12-12-12s-12 5.373-12 12 5.373 12 12 12c2.972 0 5.691-1.081 7.787-2.87-0.031 0.677 0.293 1.515 0.998 2.299l6.447 7.58c1.104 1.226 2.907 1.33 4.007 0.23s0.997-2.903-0.23-4.007zM12 20c-4.418 0-8-3.582-8-8s3.582-8 8-8 8 3.582 8 8-3.582 8-8 8z"></path>
</symbol>
</defs>
</svg>